<svg id="Layer_1" enable-background="new 0 0 512 512" height="512" viewBox="0 0 512 512" width="512" xmlns="http://www.w3.org/2000/svg"><g><path d="m336 391.427c4.143 0 7.5-3.357 7.5-7.5v-110.552c0-31.941-6.177-63.108-18.358-92.638l-11.855-28.737c-1.581-3.829-5.966-5.651-9.794-4.073-3.829 1.58-5.652 5.965-4.073 9.794l4.87 11.805h-96.58l17.418-42.221c5.555-13.467 8.372-27.681 8.372-42.247v-6.717h44.999v6.717c0 14.566 2.817 28.78 8.372 42.247 1.58 3.829 5.964 5.652 9.794 4.073 3.829-1.58 5.652-5.965 4.073-9.794-4.804-11.644-7.239-23.933-7.239-36.527v-69.557c.001-8.547-6.953-15.5-15.499-15.5h-44c-8.547 0-15.5 6.953-15.5 15.5v69.557c0 12.594-2.436 24.884-7.238 36.527l-24.403 59.153c-12.182 29.529-18.359 60.697-18.359 92.638v210.107c0 15.726 12.794 28.519 28.519 28.519h117.961c15.726 0 28.52-12.793 28.52-28.519v-67.247c0-4.143-3.357-7.5-7.5-7.5s-7.5 3.357-7.5 7.5v22.265h-145v-154.997h8.678c4.142 0 7.5-3.357 7.5-7.5s-3.358-7.5-7.5-7.5h-8.619c.594-28.266 6.357-55.843 17.166-82.045l.797-1.932h108.956l.797 1.932c10.809 26.202 16.571 53.78 17.166 82.045h-104.468c-4.142 0-7.5 3.357-7.5 7.5s3.358 7.5 7.5 7.5h104.527v100.424c0 4.142 3.357 7.5 7.5 7.5zm-102.5-375.927c0-.275.224-.5.5-.5h44c.275 0 .499.225.499.5v47.84h-44.999zm95 437.999v29.982c0 7.454-6.065 13.519-13.52 13.519h-117.961c-7.455 0-13.519-6.065-13.519-13.519v-29.982z"/></g></svg>