<svg id="Capa_1" enable-background="new 0 0 510.924 510.924" height="512" viewBox="0 0 510.924 510.924" width="512" xmlns="http://www.w3.org/2000/svg"><path d="m463.239 274.146c-6.487-19.174-23.623-33.351-43.649-36.222-.761-7.465-2.621-14.608-5.4-21.276l.475.274c5.263-9.116 10.527-18.233 15.79-27.349 7.764-13.448 15.251-26.169 12.204-42.575-4.292-23.114-26.472-39.417-49.865-36.328-17.223 2.274-28.073 13.434-36.301 27.685-6.142 10.638-12.284 21.276-18.426 31.913-3.601.296-7.129.844-10.571 1.628-1.7-5.217-3.952-10.184-6.687-14.837 4.325-7.407 9.582-14.84 12.615-22.897 5.879-15.616 2.701-33.677-8.181-46.342l42.443-72.694-25.906-15.126-42.431 72.673c-20.266-4.063-39.314 5.951-49.57 23.253-5.271 8.893-10.426 17.857-15.639 26.784-7.723 2.282-14.934 5.757-21.418 10.225-2.432-9.076-4.126-18.894-7.93-27.52-7.217-16.368-24.094-27.096-41.975-26.71-19.705.425-37.288 14.181-42.366 33.258-3.321 12.476.223 23.869 3.417 35.792 2.741 10.228 5.481 20.457 8.222 30.685-22.149 11.474-37.953 33.556-40.597 59.488-27.218 3.904-41.645 25.18-47.676 50.155-6.296 26.076-5.94 53.624.995 79.534 13.204 49.328 49.459 89.458 93.578 113.869 91.614 50.69 218.708 35.805 289.509-43.794 39.552-44.465 54.612-106.594 35.34-163.546zm-135.039-1.394c-4.685-16.114-14.581-30.027-27.753-39.771 6.092-21.04 27.029-35.064 48.79-32.717 21.508 2.32 38.896 20.216 40.59 41.792-20.914 9.304-41.146 20.471-61.627 30.696zm-204.744-29.671c-.726-.363-1.462-.697-2.2-1.025 1.695-21.576 19.083-39.471 40.591-41.791 21.761-2.347 42.698 11.676 48.79 32.716-13.172 9.744-23.068 23.658-27.753 39.771zm132.086 5.09c22.683 0 41.55 16.626 45.073 38.33-28.33 13.667-61.813 13.668-90.145 0 3.522-21.704 22.388-38.33 45.072-38.33zm139.202-107.38c9.531-2.547 19.257 5.207 18.657 15.114-.265 4.38-2.732 7.942-4.852 11.614-4.333 7.506-8.667 15.012-13 22.517-7.273-6.705-15.854-12.011-25.318-15.472 3.262-5.65 6.524-11.3 9.786-16.949 3.681-6.378 6.917-14.731 14.727-16.824zm-108.505-38.47c9.847-2.583 19.767 4.85 20.155 14.96.239 6.239-3.766 11.425-6.763 16.556-8.719-6.275-18.815-10.742-29.747-12.849 4.109-7.036 7.706-16.394 16.355-18.667zm-30.697 47.287c21.45 0 39.485 14.869 44.362 34.839-12.214 8.885-21.677 21.322-26.855 35.79-11.486-2.732-23.527-2.733-35.014 0-5.177-14.468-14.641-26.905-26.855-35.79 4.878-19.969 22.911-34.839 44.362-34.839zm-106.081-22.251c-3.257-12.163 9.822-22.683 20.966-17.093 6.152 3.086 7.559 8.944 9.164 14.934 3.075 11.478 6.151 22.956 9.226 34.434-2.09 3.897-3.841 7.999-5.23 12.264-7.422-1.691-15.049-2.241-22.636-1.661zm106.081 353.548c-48.132 0-96.951-15.629-133.704-47.253-33.134-28.51-54.492-69.851-52.358-114.146.666-13.825 2.189-34.873 12.656-45.184 10.038-9.888 22.43-7.142 33.652-1.539v57.498h30v-42.52c14.805 7.392 29.61 14.783 44.415 22.175 28.022 13.991 58.125 20.287 89.319 14.653v27.692h30v-36.858c9.851-4.34 19.383-9.491 29.011-14.298v70.156h30v-85.134c6.454-3.222 12.908-6.444 19.361-9.666 6.784-3.387 14.271-8.359 21.977-9.038 18.544-1.633 25.323 14.666 28.701 29.683 3.405 15.138 4.095 30.861 2.004 46.237-7.024 51.668-44.663 93.36-90.258 115.91-29.34 14.509-62.096 21.632-94.776 21.632z"/><path d="m141.167 366.522h30v30h-30z"/><path d="m188.975 408.734h30v30h-30z"/><path d="m310.934 402.153h30v30h-30z"/></svg>